<?xml version="1.0" encoding="UTF-8" standalone="no"?>
<!DOCTYPE svg PUBLIC "-//W3C//DTD SVG 1.1//EN" "http://www.w3.org/Graphics/SVG/1.1/DTD/svg11.dtd">
<svg version="1.1" xmlns="http://www.w3.org/2000/svg" xmlns:xlink="http://www.w3.org/1999/xlink" preserveAspectRatio="xMidYMid meet" viewBox="0 0 640 640" width="640" height="640"><defs><path d="M101.67 347.63L101.67 389.3L98.89 433.75L137.78 447.63L179.44 442.08L221.11 442.08L262.78 442.08L307.22 442.08L348.89 442.08L390.56 442.08L432.22 442.08L443.33 403.19L448.89 361.52L418.33 333.75L376.67 328.19L329.44 328.19L287.78 322.63L246.11 322.63L204.44 322.63L160 322.63L118.33 330.97" id="alJPD64pC"></path><path d="M121.11 333.75L113.7 385.13L110 436.52" id="aubV79ff"></path><path d="M140.56 330.97L123.89 381.93L121.11 436.52" id="a4p0LwjIws"></path><path d="M154.44 325.41L145.19 384.42L140.56 447.63" id="g4DigYK1Ct"></path><path d="M98.89 347.63L121.11 325.41" id="b5nnl5WqsI"></path><path d="M171.11 322.63L161.11 385.13L154.44 447.63" id="d22CjzyJBN"></path><path d="M179.44 322.63L168.33 377.62L168.33 436.52" id="bmilr6XOY"></path><path d="M190.56 325.41L179.44 380.39L179.44 439.3" id="bHPzAaxX0"></path><path d="M196.11 322.63L196.11 380.97L198.89 439.3" id="a461U7QTC"></path><path d="M208.33 321.25L208.33 379.58L211.11 437.91" id="a3I07u2TjD"></path><path d="M223.33 325.41L223.33 383.75L226.11 442.08" id="a1Fu90kj6V"></path><path d="M243.33 319.86L240.56 378.19L240.56 436.52" id="b3uClqt2a"></path><path d="M253.33 325.27L253.59 380.97L261.07 439.44" id="bf75Wg5jW"></path><path d="M275.28 321.25L272.5 379.58L272.5 437.91" id="aoej7ix84"></path><path d="M287.78 322.63L287.78 379.58L282.22 436.52" id="aoCAxYVQj"></path><path d="M300 326.8L300 383.75L294.44 440.69" id="f1JofIDjPk"></path><path d="M320 330.97L320 387.91L314.44 444.86" id="a4MFeOWnz"></path><path d="M337.78 326.8L337.78 383.75L332.22 440.69" id="c9o36s7LkQ"></path><path d="M355.56 325.41L355.56 382.36L350 439.3" id="c2SxS4fOUJ"></path><path d="M366.67 328.19L366.67 385.13L361.11 442.08" id="i4Wm3OipZ"></path><path d="M381.94 324.63L379.17 382.97L379.17 441.3" id="f4otpjVAJe"></path><path d="M400 333.75L400 390.69L394.44 447.63" id="eTmXKQeTV"></path><path d="M415.56 339.3L415.56 387.91L412.78 436.52" id="bH9TEUG"></path><path d="M432.22 353.19L426.67 394.86L415.56 433.75" id="eH6QG8qdc"></path></defs><g><g><g><g><use xlink:href="#alJPD64pC" opacity="1" fill-opacity="0" stroke="#000000" stroke-width="8" stroke-opacity="1"></use></g></g><g><g><use xlink:href="#aubV79ff" opacity="1" fill-opacity="0" stroke="#000000" stroke-width="4" stroke-opacity="1"></use></g></g><g><g><use xlink:href="#a4p0LwjIws" opacity="1" fill-opacity="0" stroke="#000000" stroke-width="4" stroke-opacity="1"></use></g></g><g><g><use xlink:href="#g4DigYK1Ct" opacity="1" fill-opacity="0" stroke="#000000" stroke-width="4" stroke-opacity="1"></use></g></g><g><g><use xlink:href="#b5nnl5WqsI" opacity="1" fill-opacity="0" stroke="#000000" stroke-width="8" stroke-opacity="1"></use></g></g><g><g><use xlink:href="#d22CjzyJBN" opacity="1" fill-opacity="0" stroke="#000000" stroke-width="4" stroke-opacity="1"></use></g></g><g><g><use xlink:href="#bmilr6XOY" opacity="1" fill-opacity="0" stroke="#000000" stroke-width="4" stroke-opacity="1"></use></g></g><g><g><use xlink:href="#bHPzAaxX0" opacity="1" fill-opacity="0" stroke="#000000" stroke-width="4" stroke-opacity="1"></use></g></g><g><g><use xlink:href="#a461U7QTC" opacity="1" fill-opacity="0" stroke="#000000" stroke-width="4" stroke-opacity="1"></use></g></g><g><g><use xlink:href="#a3I07u2TjD" opacity="1" fill-opacity="0" stroke="#000000" stroke-width="4" stroke-opacity="1"></use></g></g><g><g><use xlink:href="#a1Fu90kj6V" opacity="1" fill-opacity="0" stroke="#000000" stroke-width="4" stroke-opacity="1"></use></g></g><g><g><use xlink:href="#b3uClqt2a" opacity="1" fill-opacity="0" stroke="#000000" stroke-width="4" stroke-opacity="1"></use></g></g><g><g><use xlink:href="#bf75Wg5jW" opacity="1" fill-opacity="0" stroke="#000000" stroke-width="4" stroke-opacity="1"></use></g></g><g><g><use xlink:href="#aoej7ix84" opacity="1" fill-opacity="0" stroke="#000000" stroke-width="4" stroke-opacity="1"></use></g></g><g><g><use xlink:href="#aoCAxYVQj" opacity="1" fill-opacity="0" stroke="#000000" stroke-width="4" stroke-opacity="1"></use></g></g><g><g><use xlink:href="#f1JofIDjPk" opacity="1" fill-opacity="0" stroke="#000000" stroke-width="4" stroke-opacity="1"></use></g></g><g><g><use xlink:href="#a4MFeOWnz" opacity="1" fill-opacity="0" stroke="#000000" stroke-width="4" stroke-opacity="1"></use></g></g><g><g><use xlink:href="#c9o36s7LkQ" opacity="1" fill-opacity="0" stroke="#000000" stroke-width="4" stroke-opacity="1"></use></g></g><g><g><use xlink:href="#c2SxS4fOUJ" opacity="1" fill-opacity="0" stroke="#000000" stroke-width="4" stroke-opacity="1"></use></g></g><g><g><use xlink:href="#i4Wm3OipZ" opacity="1" fill-opacity="0" stroke="#000000" stroke-width="4" stroke-opacity="1"></use></g></g><g><g><use xlink:href="#f4otpjVAJe" opacity="1" fill-opacity="0" stroke="#000000" stroke-width="4" stroke-opacity="1"></use></g></g><g><g><use xlink:href="#eTmXKQeTV" opacity="1" fill-opacity="0" stroke="#000000" stroke-width="4" stroke-opacity="1"></use></g></g><g><g><use xlink:href="#bH9TEUG" opacity="1" fill-opacity="0" stroke="#000000" stroke-width="4" stroke-opacity="1"></use></g></g><g><g><use xlink:href="#eH6QG8qdc" opacity="1" fill-opacity="0" stroke="#000000" stroke-width="4" stroke-opacity="1"></use></g></g></g></g></svg>