<?xml version="1.0" encoding="UTF-8" standalone="no"?>
<!DOCTYPE svg PUBLIC "-//W3C//DTD SVG 1.1//EN" "http://www.w3.org/Graphics/SVG/1.1/DTD/svg11.dtd">
<svg version="1.1" xmlns="http://www.w3.org/2000/svg" xmlns:xlink="http://www.w3.org/1999/xlink" preserveAspectRatio="xMidYMid meet" viewBox="0 0 640 640" width="640" height="640"><defs><path d="M304.57 55.06L309.51 74.81L329.26 69.88L342.84 84.69L358.89 71.11L372.47 56.3L371.23 77.28L393.46 84.69L388.52 104.44L404.57 116.79L389.75 130.37L409.51 142.72L388.52 153.83L388.52 174.81L368.77 178.52L352.72 198.27L332.96 194.57L319.38 210.62L300.86 201.98L281.11 197.04L260.12 199.51L266.3 179.75L239.14 167.41L231.73 147.65L245.31 132.84L230.49 118.02L247.78 104.44L255.19 83.46L274.94 79.75L294.69 67.41" id="aIFYBXbCd"></path></defs><g><g><g><use xlink:href="#aIFYBXbCd" opacity="1" fill="#ffffff" fill-opacity="1"></use><g><use xlink:href="#aIFYBXbCd" opacity="1" fill-opacity="0" stroke="#000000" stroke-width="8" stroke-opacity="1"></use></g></g></g></g></svg>